<?xml version="1.0" standalone="no"?><!DOCTYPE svg PUBLIC "-//W3C//DTD SVG 1.1//EN" "http://www.w3.org/Graphics/SVG/1.1/DTD/svg11.dtd"><svg t="1692354029838" class="icon" viewBox="0 0 1024 1024" version="1.1" xmlns="http://www.w3.org/2000/svg" p-id="17190" xmlns:xlink="http://www.w3.org/1999/xlink" width="16" height="16"><path d="M463.941448 395.519102c-20.35663 15.921621-39.174208 26.688849-56.546877 32.388664l0 60.436464c33.023114-10.946306 61.612243-27.774577 85.952604-50.483788l0 246.633167 70.749344 0L564.096519 337.704348l-58.269102 0C498.323513 358.87553 484.298078 379.594411 463.941448 395.519102z" fill="#312F31" p-id="17191"></path><path d="M504.471536 58.772568c-248.25613 0-449.563996 201.848171-449.563996 450.832895 0 249.076822 201.306842 450.922946 449.563996 450.922946 248.353344 0 449.656093-201.846124 449.656093-450.922946C954.127629 260.620739 752.824881 58.772568 504.471536 58.772568zM504.471536 891.136993c-210.077599 0-380.350634-170.815387-380.350634-381.530506 0-210.624045 170.272012-381.438409 380.350634-381.438409 210.174813 0 380.446825 170.814364 380.446825 381.438409C884.918361 720.320583 714.64635 891.136993 504.471536 891.136993z" fill="#312F31" p-id="17192"></path></svg>