<?xml version="1.0" standalone="no"?><!DOCTYPE svg PUBLIC "-//W3C//DTD SVG 1.1//EN" "http://www.w3.org/Graphics/SVG/1.1/DTD/svg11.dtd"><svg class="icon" width="16px" height="16.00px" viewBox="0 0 1024 1024" version="1.1" xmlns="http://www.w3.org/2000/svg"><path fill="#312F31" d="M729.9584 375.296H313.9072v-26.0096a196.7104 196.7104 0 0 1 378.88-74.6496 28.16 28.16 0 1 0 52.1216-21.4016 253.0304 253.0304 0 0 0-487.3216 96.0512v28.16a159.5904 159.5904 0 0 0-133.12 157.184v238.08A159.5392 159.5392 0 0 0 283.5968 931.84h446.3616a159.488 159.488 0 0 0 159.3344-159.3344v-238.08a159.488 159.488 0 0 0-159.3344-159.1296z m103.0144 397.4144A103.168 103.168 0 0 1 729.9584 875.52H283.5968a103.168 103.168 0 0 1-103.0656-103.0144v-238.08A103.1168 103.1168 0 0 1 283.5968 431.616h446.3616a103.1168 103.1168 0 0 1 103.0144 103.0144z"  /><path fill="#312F31" d="M510.5664 498.2272a95.744 95.744 0 0 0-28.16 187.2384v91.8016a28.16 28.16 0 0 0 56.32 0v-91.8016a95.744 95.744 0 0 0-28.16-187.2384z m0 135.168a39.424 39.424 0 1 1 39.424-39.424 39.5264 39.5264 0 0 1-39.424 39.424z"  /></svg>